<svg width="44" height="37" xmlns="http://www.w3.org/2000/svg"><path d="M33.344 12.955a1.61 1.61 0 0 0 .502-1.182c0-.456-.167-.85-.502-1.183a1.631 1.631 0 0 0-1.19-.5c-.458 0-.855.167-1.19.5l-3.887 3.837v-7.7c0-.455-.168-.85-.502-1.182a1.631 1.631 0 0 0-1.19-.5 1.63 1.63 0 0 0-1.19.5 1.611 1.611 0 0 0-.503 1.182v7.7l-3.887-3.837a1.631 1.631 0 0 0-1.19-.5c-.458 0-.855.167-1.19.5a1.611 1.611 0 0 0-.502 1.183c0 .455.168.85.502 1.182l6.77 6.728c.335.332.731.499 1.19.499.458 0 .855-.167 1.19-.5l6.769-6.727zM15.93 31.258a3.23 3.23 0 0 1 .992 2.378 3.23 3.23 0 0 1-.992 2.379 3.271 3.271 0 0 1-2.393.985 3.271 3.271 0 0 1-2.393-.985 3.23 3.23 0 0 1-.991-2.379c0-.928.33-1.72.991-2.378a3.271 3.271 0 0 1 2.393-.985 3.27 3.27 0 0 1 2.393.985zm23.693 0a3.23 3.23 0 0 1 .991 2.378 3.23 3.23 0 0 1-.991 2.379A3.271 3.271 0 0 1 37.23 37a3.271 3.271 0 0 1-2.393-.985 3.23 3.23 0 0 1-.992-2.379c0-.928.33-1.72.992-2.378a3.271 3.271 0 0 1 2.393-.985 3.27 3.27 0 0 1 2.393.985zm3.874-27.395c.335.333.502.727.502 1.182V18.5c0 .42-.141.793-.423 1.117a1.645 1.645 0 0 1-1.084.565l-27.606 3.206c.018.122.057.31.119.565.062.254.115.486.159.696.044.21.066.403.066.578 0 .28-.212.841-.635 1.773h24.327c.458-.09.855.076 1.19.408.335.333.502.727.502 1.183 0 .455-.167.85-.502 1.182-.335.333-.732.5-1.19.227H11.846c-.458.273-.855.106-1.19-.227a1.611 1.611 0 0 1-.502-1.182c0-.245.097-.591.29-1.038.195-.447.455-.968.78-1.564.327-.595.508-.928.543-.998L7.087 3.364H1.692c-.458 0-.855-.167-1.19-.5A1.611 1.611 0 0 1 0 1.682C0 1.226.167.832.502.499A1.631 1.631 0 0 1 1.692 0h6.77c.282 0 .533.057.753.17.22.115.397.25.529.408.132.158.247.372.344.644.097.271.163.504.198.696.035.193.084.451.145.776.062.324.102.547.12 1.306h31.757c.458-.636.855-.47 1.19-.137z"/></svg>