<svg width="38" height="34" xmlns="http://www.w3.org/2000/svg"><path d="M35.88 13.064a12.306 12.306 0 0 0 2.12-2.1v19.172c0 1.063-.332 1.972-.997 2.73C36.34 33.621 35.54 34 34.607 34H3.393c-.933 0-1.732-.378-2.396-1.135C.332 32.108 0 31.2 0 30.136V10.963c.622.789 1.336 1.49 2.142 2.1 5.117 3.961 8.63 6.738 10.539 8.332.806.676 1.46 1.203 1.961 1.582.502.378 1.17.764 2.004 1.159.834.394 1.612.591 2.333.591h.042c.721 0 1.499-.197 2.333-.591.834-.395 1.502-.781 2.004-1.16a50.745 50.745 0 0 0 1.961-1.581c2.403-1.98 5.924-4.757 10.56-8.331zm1.113-11.93C37.664 1.893 38 2.802 38 3.865c0 1.271-.346 2.487-1.04 3.646a10.911 10.911 0 0 1-2.586 2.97c-5.316 4.202-8.624 6.818-9.924 7.848-.142.113-.442.358-.901.737-.46.378-.842.684-1.146.917a21.18 21.18 0 0 1-1.102.785 6.1 6.1 0 0 1-1.22.652 3.005 3.005 0 0 1-1.06.217h-.042c-.325 0-.679-.072-1.06-.217a6.1 6.1 0 0 1-1.22-.652 21.18 21.18 0 0 1-1.102-.785c-.304-.233-.686-.54-1.146-.917-.459-.379-.76-.624-.9-.737-1.287-1.03-3.14-2.5-5.557-4.407a986.23 986.23 0 0 1-4.347-3.44c-.876-.677-1.703-1.607-2.48-2.79C.388 6.508 0 5.41 0 4.395c0-1.256.293-2.302.88-3.14C1.467.42 2.304 0 3.393 0h31.214c.919 0 1.714.378 2.386 1.135z"/></svg>