<svg xmlns="http://www.w3.org/2000/svg" width="44" height="37"><path d="M33.344 12.955q.502-.5.502-1.182 0-.684-.502-1.183a1.63 1.63 0 0 0-1.19-.5q-.687 0-1.19.5l-3.887 3.837v-7.7q0-.683-.502-1.182a1.63 1.63 0 0 0-1.19-.5q-.688 0-1.19.5a1.6 1.6 0 0 0-.503 1.182v7.7l-3.887-3.837a1.63 1.63 0 0 0-1.19-.5q-.687 0-1.19.5a1.6 1.6 0 0 0-.502 1.183q0 .683.502 1.182l6.77 6.728q.502.498 1.19.499.687 0 1.19-.5zM15.93 31.258a3.23 3.23 0 0 1 .992 2.378 3.23 3.23 0 0 1-.992 2.379 3.27 3.27 0 0 1-2.393.985 3.27 3.27 0 0 1-2.393-.985 3.23 3.23 0 0 1-.991-2.379q0-1.391.991-2.378a3.27 3.27 0 0 1 2.393-.985q1.402 0 2.393.985m23.693 0a3.23 3.23 0 0 1 .991 2.378 3.23 3.23 0 0 1-.991 2.379A3.27 3.27 0 0 1 37.23 37a3.27 3.27 0 0 1-2.393-.985 3.23 3.23 0 0 1-.992-2.379q0-1.391.992-2.378a3.27 3.27 0 0 1 2.393-.985q1.401 0 2.393.985m3.874-27.395q.502.5.502 1.182V18.5q0 .63-.423 1.117a1.65 1.65 0 0 1-1.084.565l-27.606 3.206q.027.183.119.565.093.381.159.696t.066.578c0 .28-.212.841-.635 1.773h24.327c.458-.09.855.076 1.19.408q.502.5.502 1.183t-.502 1.182c-.335.333-.732.5-1.19.227H11.846c-.458.273-.855.106-1.19-.227a1.6 1.6 0 0 1-.502-1.182q0-.368.29-1.038.292-.67.78-1.564.49-.893.543-.998L7.087 3.364H1.692q-.687 0-1.19-.5A1.6 1.6 0 0 1 0 1.682Q0 .998.502.499 1.005 0 1.692 0h6.77q.423 0 .753.17.33.172.529.408.198.237.344.644t.198.696.145.776c.062.324.102.547.12 1.306h31.757c.458-.636.855-.47 1.19-.137"/></svg>