<svg xmlns="http://www.w3.org/2000/svg" width="38" height="34"><path d="M35.88 13.064a12.3 12.3 0 0 0 2.12-2.1v19.172q0 1.594-.997 2.73Q36.007 34 34.607 34H3.393q-1.4 0-2.396-1.135Q0 31.73 0 30.136V10.963q.933 1.184 2.142 2.1 7.676 5.941 10.539 8.332 1.21 1.014 1.961 1.582.753.567 2.004 1.159 1.251.591 2.333.591h.042q1.082 0 2.333-.591 1.251-.592 2.004-1.16a51 51 0 0 0 1.961-1.581q3.605-2.97 10.56-8.331m1.113-11.93Q38 2.27 38 3.865q0 1.907-1.04 3.646a10.9 10.9 0 0 1-2.586 2.97q-7.974 6.303-9.924 7.848-.213.169-.901.737-.69.567-1.146.917t-1.102.785a6 6 0 0 1-1.22.652 3 3 0 0 1-1.06.217h-.042q-.488 0-1.06-.217a6 6 0 0 1-1.22-.652q-.647-.434-1.102-.785-.456-.35-1.146-.917t-.9-.737q-1.931-1.546-5.557-4.407a986 986 0 0 1-4.347-3.44q-1.314-1.015-2.48-2.79Q0 5.916 0 4.395q0-1.883.88-3.14Q1.76.002 3.393 0h31.214q1.378 0 2.386 1.135"/></svg>